<svg xml:space="preserve" width="100" height="100" xmlns="http://www.w3.org/2000/svg"><path style="fill:#fff;stroke:#4d4d4d;stroke-width:1;stroke-dasharray:none" d="M84.02 24.585H14.773c-.83 0-1.505.675-1.505 1.506v48.17c0 .831.674 1.505 1.505 1.505h9.032c.831 0 1.506-.674 1.506-1.505 0-.214.078-.449.25-.738a1.5 1.5 0 0 0 0-1.538c-.172-.289-.25-.524-.25-.738a1.506 1.506 0 0 1 3.01 0c0 .217-.078.449-.25.738a1.5 1.5 0 0 0 0 1.538c.172.29.25.524.25.738 0 .831.675 1.505 1.506 1.505h9.032c.83 0 1.505-.674 1.505-1.505 0-.214.079-.449.25-.738a1.5 1.5 0 0 0 0-1.538c-.171-.289-.25-.524-.25-.738a1.506 1.506 0 0 1 3.011 0c0 .217-.078.449-.25.738a1.5 1.5 0 0 0 0 1.538c.172.29.25.524.25.738 0 .831.674 1.505 1.505 1.505h9.032c.831 0 1.506-.674 1.506-1.505 0-.214.078-.449.25-.735a1.5 1.5 0 0 0 0-1.538c-.172-.289-.25-.524-.25-.738a1.506 1.506 0 0 1 3.01 0c0 .214-.078.45-.25.735a1.5 1.5 0 0 0 0 1.538c.172.29.25.524.25.738 0 .831.674 1.505 1.505 1.505h9.032c.831 0 1.506-.674 1.506-1.505 0-.214.078-.449.25-.735a1.5 1.5 0 0 0 0-1.538c-.172-.289-.25-.524-.25-.738a1.506 1.506 0 0 1 3.01 0c0 .214-.078.45-.25.735a1.5 1.5 0 0 0 0 1.538c.172.29.25.524.25.738 0 .831.675 1.505 1.506 1.505h9.032c.83 0 1.505-.674 1.505-1.505v-48.17c0-.831-.675-1.506-1.506-1.506z"/><path d="M56.924 39.639h21.074a1.506 1.506 0 0 0 0-3.011H56.924a1.506 1.506 0 0 0 0 3.01zM56.924 48.67h12.042a1.506 1.506 0 0 0 0-3.01H56.924a1.506 1.506 0 0 0 0 3.01z" style="stroke-width:1;stroke-dasharray:none"/><path style="fill:#000;stroke:none;stroke-width:1;stroke-dasharray:none" d="M39.293 30.606c-.957 0-3.122 0-5.226 1.316-6.196.22-6.925 3.559-6.925 6.079 0 .496.09 1.426.175 2.203a2.817 2.817 0 0 0-1.289 2.728l.328 2.62c.124.98.747 1.793 1.665 2.194a10.065 10.065 0 0 0 2.225 4.492l-.22.885-4.519 1.129a8.197 8.197 0 0 0-6.217 7.966 1.498 1.498 0 0 0 1.505 1.506l30.107-.01c.831 0 1.505-.674 1.505-1.505a8.194 8.194 0 0 0-6.217-7.963l-4.518-1.129-.19-.756a9.95 9.95 0 0 0 2.351-4.66 2.821 2.821 0 0 0 1.505-2.152l.329-2.62a2.818 2.818 0 0 0-1.223-2.68l.079-1.595.277-.277c.777-.825 1.827-2.586.162-5.127-.788-1.205-2.414-2.644-5.669-2.644z"/><path d="m79.138 83.39-4.722-13.475-13.256-5.308 13.476-4.721 5.308-13.256 4.721 13.476 13.256 5.307-13.476 4.722zM18.609 40.514l-2.658-7.41-7.376-2.75 7.41-2.658 2.75-7.375 2.658 7.409 7.376 2.75-7.41 2.658zM73.096 30.76l-3.57-9.281-9.28-3.57 9.28-3.57 3.57-9.28 3.57 9.28 9.28 3.57-9.28 3.57z" style="fill:#fc0;stroke:#d4aa00;stroke-width:1;stroke-dasharray:none"/></svg>